<svg width="255" height="255" viewBox="0 0 255 255" fill="none" xmlns="http://www.w3.org/2000/svg">
<rect width="255" height="255" rx="60" fill="white"/>
<mask id="mask0_4_84" style="mask-type:alpha" maskUnits="userSpaceOnUse" x="46" y="46" width="162" height="162">
<circle cx="127" cy="127" r="81" fill="#D9D9D9"/>
</mask>
<g mask="url(#mask0_4_84)">
<path fill-rule="evenodd" clip-rule="evenodd" d="M118.855 12.5475L111.267 20.9747L140.26 47.0805C135.945 46.37 131.516 46.0004 127 46.0004C126.188 46.0004 125.38 46.0123 124.574 46.036L104.763 28.1981L97.1748 36.6254L109.654 47.8619C105.9 48.681 102.243 49.7605 98.7025 51.0805L90.6709 43.8487L83.0829 52.276L87.5099 56.262C84.5692 57.9072 81.7417 59.7304 79.0419 61.717L76.579 59.4994L68.991 67.9266L70.3262 69.1288C68.0109 71.3965 65.831 73.8021 63.8 76.3321L62.4871 75.15L54.8992 83.5773L57.2883 85.7285C55.5829 88.6028 54.0502 91.5917 52.7045 94.6808L48.3952 90.8006L40.8073 99.2279L48.6675 106.305C47.7105 109.937 46.9995 113.669 46.5532 117.481L34.3033 106.451L26.7154 114.879L46.1769 132.402C46.5235 137.665 47.3728 142.791 48.6773 147.733L20.2114 122.102L12.6235 130.529L61.2391 174.303C68.0132 183.704 76.7535 191.594 86.8576 197.37L135.767 241.408L143.355 232.981L114.556 207.051C118.613 207.676 122.768 208 127 208C128.029 208 129.054 207.981 130.074 207.943L149.859 225.757L157.447 217.33L144.885 206.019C148.618 205.178 152.253 204.079 155.771 202.742L163.951 210.107L171.539 201.68L166.903 197.506C169.829 195.846 172.642 194.01 175.327 192.011L178.043 194.456L185.631 186.029L183.994 184.556C186.297 182.275 188.463 179.858 190.481 177.316L192.135 178.806L199.722 170.378L196.944 167.877C198.636 164.989 200.154 161.986 201.483 158.884L206.226 163.155L213.814 154.728L205.46 147.205C206.397 143.553 207.087 139.802 207.509 135.97L220.318 147.504L227.906 139.077L207.777 120.953C207.385 115.632 206.478 110.454 205.107 105.469L234.41 131.854L241.998 123.426L191.406 77.8734C185.294 69.8725 177.725 63.0441 169.095 57.7843L118.855 12.5475ZM162.328 66.9509L183.003 85.5661C188.097 92.4405 191.956 100.286 194.251 108.774L138.107 58.221C146.827 59.6183 155.007 62.6343 162.328 66.9509ZM120.512 57.6385C116.37 58.021 112.333 58.7662 108.433 59.842L195.725 138.44C196.34 134.718 196.66 130.897 196.66 127C196.66 126.733 196.658 126.465 196.655 126.198L120.512 57.6385ZM192.492 150.789L96.4985 64.3554C93.4245 65.8549 90.4773 67.574 87.6772 69.4923L188.308 160.101C189.921 157.121 191.322 154.01 192.492 150.789ZM182.034 169.711L78.7728 76.7342C76.434 78.9786 74.2515 81.3848 72.2433 83.9346L175.551 176.953C177.875 174.694 180.042 172.274 182.034 169.711ZM166.703 184.246L65.9126 93.4938C64.2838 96.4569 62.8644 99.5513 61.6742 102.757L157.936 189.431C160.992 187.914 163.921 186.179 166.703 184.246ZM146.079 194.015L58.3633 115.035C57.6904 118.923 57.3397 122.921 57.3397 127C57.3397 127.065 57.3398 127.129 57.34 127.194L134.094 196.304C138.205 195.888 142.211 195.114 146.079 194.015ZM116.704 195.905L59.5388 144.433C61.624 152.526 65.1269 160.049 69.7671 166.722L93.5002 188.091C100.577 191.98 108.402 194.675 116.704 195.905Z" fill="black"/>
</g>
</svg>
